<svg width="52" height="52" viewBox="0 0 52 52" fill="none" xmlns="http://www.w3.org/2000/svg">
<g clip-path="url(#clip0_57_16)">
<path d="M16.9736 8.66666C8.8703 8.86166 1.2653 14.768 0.12997 23.8637C-0.244534 26.8844 0.18354 29.9505 1.37107 32.7531C2.5586 35.5557 4.46365 37.9958 6.8943 39.8277C12.8678 44.3343 20.3233 44.2628 26.0043 40.9933C28.6372 42.5176 31.6251 43.3214 34.6672 43.3237C37.7094 43.326 40.6985 42.5268 43.3337 41.0066C45.9689 39.4863 48.1572 37.2986 49.6783 34.6637C51.1995 32.0288 51.9997 29.0396 51.9986 25.9971C51.9975 22.9545 51.1951 19.9659 49.6721 17.3321C48.149 14.6983 45.9592 12.5122 43.3229 10.9939C40.6866 9.47553 37.6969 8.67851 34.6547 8.68304C31.6125 8.68756 28.6252 9.49347 25.9935 11.0197C23.2632 9.40839 20.1365 8.59332 16.9671 8.66666H16.9736ZM17.238 11.8842C20.629 11.8663 23.9134 13.0681 26.4923 15.2703C29.0712 17.4726 30.7728 20.5286 31.2866 23.881C31.2866 23.8962 31.291 23.9092 31.2931 23.9243C31.3365 24.2342 31.3733 24.5462 31.3971 24.8625L31.4101 24.9795C31.4318 25.3045 31.4448 25.636 31.447 25.9675C31.447 26.1495 31.4361 26.3315 31.4296 26.5135C31.4253 26.6392 31.4231 26.767 31.4145 26.8927C31.3989 27.1351 31.3772 27.3771 31.3495 27.6185L31.3278 27.7918C31.2953 28.0518 31.2563 28.3118 31.2086 28.5675L31.187 28.6715C31.1393 28.9402 31.0786 29.2088 31.0136 29.4732L31.0006 29.5273C30.7824 30.3836 30.485 31.2178 30.1123 32.019C30.0971 32.0537 30.0755 32.0905 30.0603 32.1273C29.2171 33.8796 28.0223 35.4394 26.5503 36.7098L26.4333 36.8095C26.26 36.9547 26.0823 37.0912 25.9025 37.2298C25.7833 37.3208 25.6641 37.4118 25.5385 37.5007C25.4518 37.5657 25.3651 37.622 25.2741 37.6827C24.5074 38.2015 23.6926 38.6455 22.841 39.0087C20.5585 39.9754 18.0618 40.3242 15.6018 40.0199C13.1418 39.7156 10.8052 38.7691 8.82697 37.2753C0.149469 30.732 1.81564 17.2467 11.8235 13.0087C13.5366 12.281 15.3768 11.8974 17.238 11.8842ZM18.5596 19.9442C18.1631 19.9442 17.8165 19.9723 17.797 20.0135C17.7753 20.0655 17.511 21.1055 17.225 22.3405C16.9303 23.5755 16.4601 25.5212 16.1958 26.6738C15.6866 28.7842 15.379 30.1687 15.379 30.3528C15.379 30.4027 15.6953 30.4438 16.0831 30.4438H16.7873L17.1036 29.0355L18.0201 25.1442C18.3451 23.7683 18.7438 22.0935 18.8976 21.4175C19.0493 20.7458 19.201 20.137 19.2335 20.0655C19.2638 19.9723 19.0905 19.942 18.5618 19.942L18.5596 19.9442ZM13.2708 23.4108L12.3218 24.4292L11.3836 25.4475L11.6588 25.7725C11.8105 25.9588 12.2308 26.4182 12.5861 26.7952L13.2405 27.4885H15.0951L14.2176 26.5395C13.7388 26.0303 13.3401 25.5428 13.3401 25.4778C13.3401 25.4085 13.7085 24.9513 14.157 24.4595C14.6055 23.9612 14.9716 23.5322 14.9716 23.4845C14.9716 23.4412 14.586 23.4108 14.1158 23.4108H13.2708ZM20.3558 23.4108C19.8553 23.4108 19.4566 23.4412 19.4566 23.4715C19.4566 23.5018 19.63 23.6947 19.8466 23.9092C20.6396 24.7043 21.1986 25.3782 21.1683 25.5125C21.1488 25.5818 20.761 26.0607 20.2908 26.5612L19.4458 27.4885H20.3926L21.3416 27.4777L22.2083 26.5287C22.685 26 23.075 25.532 23.075 25.467C23.075 25.4172 22.6676 24.9383 22.1563 24.3988L21.2398 23.4087L20.3558 23.4108Z" fill="#373737"/>
</g>
<defs>
<clipPath id="clip0_57_16">
<rect width="52" height="52" fill="white"/>
</clipPath>
</defs>
</svg>
