<svg width="39" height="57" viewBox="0 0 39 57" fill="none" xmlns="http://www.w3.org/2000/svg">
<path d="M4.07952 0.111897C4.72407 -0.135449 5.44543 0.0347384 5.93017 0.548508L13.2748 8.33329C13.2328 8.40115 13.1944 8.47272 13.1602 8.54781L0 37.4075L4.07952 0.111897Z" fill="#373737"/>
<path d="M0.306641 44.7169L17.906 55.9094C18.3794 56.2105 18.9584 56.2596 19.471 56.042L37.1377 48.5519C37.8751 48.2395 38.3252 47.4433 38.2373 46.6067L34.7039 12.901C34.6311 12.2053 34.1983 11.6108 33.5817 11.3598C32.9652 11.1088 32.268 11.2432 31.7744 11.7082L25.9267 17.2179L0.306641 44.7169Z" fill="#373737"/>
<path d="M23.8969 14.0665L20.285 8.32395C19.9433 7.78062 19.3592 7.46525 18.7436 7.49165C18.128 7.51805 17.5699 7.88245 17.2707 8.45327L16.1761 10.5416L5.62598 33.6775L23.8969 14.0665Z" fill="#373737"/>
</svg>
