<svg width="52" height="52" viewBox="0 0 52 52" fill="none" xmlns="http://www.w3.org/2000/svg">
<path d="M49.7002 23.8064L28.1931 2.30038C26.9548 1.06149 24.9461 1.06149 23.7066 2.30038L19.2411 6.76702L24.9059 12.4318C26.2225 11.9869 27.7321 12.2855 28.7812 13.3351C29.8368 14.3912 30.1327 15.9137 29.6765 17.2351L35.137 22.6951C36.4584 22.2394 37.982 22.5343 39.037 23.5909C40.5112 25.0651 40.5112 27.4539 39.037 28.9292C37.5617 30.404 35.1729 30.404 33.6971 28.9292C32.5885 27.8195 32.314 26.1898 32.8763 24.8239L27.7836 19.7316V33.1321C28.1427 33.3101 28.4821 33.547 28.7812 33.8462C30.2554 35.3204 30.2554 37.7092 28.7812 39.185C27.307 40.6587 24.9166 40.6587 23.4434 39.185C21.9692 37.7086 21.9692 35.3198 23.4434 33.8462C23.808 33.4822 24.2299 33.2066 24.6802 33.0222V19.4968C24.2299 19.3124 23.809 19.0396 23.4434 18.6729C22.3268 17.5568 22.0582 15.9174 22.6307 14.5461L17.0464 8.96067L2.29873 23.7067C1.05985 24.9466 1.05985 26.9553 2.29873 28.1942L23.8069 49.7008C25.0452 50.9397 27.0534 50.9397 28.2934 49.7008L49.7002 28.2939C50.9391 27.0551 50.9391 25.0453 49.7002 23.8064Z" fill="#373737"/>
</svg>
