<svg width="22" height="22" viewBox="0 0 22 22" fill="none" xmlns="http://www.w3.org/2000/svg">
<g clip-path="url(#clip0_133_175)">
<path d="M10.92 21.92C16.951 21.92 21.84 17.031 21.84 11C21.84 4.96905 16.951 0.0800018 10.92 0.0800018C4.88905 0.0800018 0 4.96905 0 11C0 17.031 4.88905 21.92 10.92 21.92Z" fill="#5865F2"/>
<path d="M14.7042 7.52352C13.9962 7.19856 13.2491 6.96685 12.4814 6.83419C12.4744 6.83286 12.4672 6.83377 12.4608 6.8368C12.4543 6.83983 12.449 6.84481 12.4456 6.85104C12.3437 7.03579 12.2511 7.22557 12.1683 7.41965C11.3409 7.29399 10.4993 7.29399 9.67188 7.41965C9.5887 7.22509 9.49486 7.03526 9.39077 6.85104C9.3872 6.84494 9.38187 6.84007 9.37547 6.83706C9.36907 6.83405 9.36192 6.83305 9.35494 6.83419C8.58753 6.96664 7.84061 7.19836 7.13298 7.52352C7.12688 7.52608 7.12174 7.53048 7.11826 7.5361C5.70271 9.65121 5.31497 11.7143 5.50521 13.7513C5.50576 13.7563 5.5073 13.7612 5.50976 13.7656C5.51221 13.77 5.51553 13.7738 5.5195 13.7769C6.3438 14.3875 7.26586 14.8536 8.2463 15.1554C8.25322 15.1574 8.26061 15.1573 8.26747 15.1551C8.27433 15.1528 8.28034 15.1485 8.2847 15.1428C8.49522 14.8562 8.68176 14.5527 8.84243 14.2355C8.84462 14.2311 8.84586 14.2264 8.84608 14.2215C8.8463 14.2166 8.84549 14.2118 8.8437 14.2072C8.8419 14.2027 8.83917 14.1986 8.83568 14.1952C8.83219 14.1918 8.82802 14.1892 8.82344 14.1875C8.52924 14.0751 8.2444 13.9396 7.9716 13.7823C7.96665 13.7793 7.96249 13.7753 7.95949 13.7704C7.9565 13.7655 7.95475 13.7599 7.95441 13.7542C7.95408 13.7484 7.95516 13.7427 7.95756 13.7375C7.95996 13.7323 7.96361 13.7277 7.96819 13.7242C8.02535 13.6816 8.08272 13.6368 8.13732 13.5916C8.14217 13.5876 8.14803 13.5851 8.15425 13.5842C8.16046 13.5834 8.16679 13.5843 8.17251 13.5869C9.95959 14.4029 11.8945 14.4029 13.6604 13.5869C13.6662 13.5841 13.6726 13.5831 13.679 13.5838C13.6853 13.5846 13.6913 13.5871 13.6963 13.5912C13.7509 13.6362 13.8083 13.6814 13.8669 13.7242C13.8715 13.7277 13.8752 13.7322 13.8776 13.7374C13.8801 13.7426 13.8812 13.7483 13.8809 13.754C13.8806 13.7598 13.8789 13.7654 13.8759 13.7703C13.873 13.7752 13.8688 13.7793 13.8639 13.7823C13.5915 13.9411 13.3061 14.0767 13.0108 14.1875C13.0062 14.1892 13.002 14.1919 12.9985 14.1954C12.995 14.1989 12.9923 14.203 12.9906 14.2076C12.9888 14.2122 12.9881 14.2171 12.9883 14.2221C12.9886 14.227 12.99 14.2318 12.9922 14.2361C13.1556 14.5516 13.3419 14.8547 13.5495 15.143C13.5538 15.1489 13.5597 15.1534 13.5666 15.1557C13.5735 15.1581 13.581 15.1582 13.5879 15.156C14.5697 14.8552 15.493 14.389 16.3179 13.7776C16.322 13.7746 16.3253 13.7709 16.3278 13.7665C16.3303 13.7622 16.3318 13.7574 16.3322 13.7524C16.56 11.3969 15.9509 9.3507 14.7177 7.53695C14.7149 7.53103 14.7102 7.52627 14.7042 7.52352ZM9.10903 12.5111C8.57092 12.5111 8.12793 12.0171 8.12793 11.4106C8.12793 10.804 8.5626 10.31 9.10903 10.31C9.65993 10.31 10.0991 10.8083 10.0901 11.4106C10.0905 12.0171 9.65567 12.5111 9.10903 12.5111ZM12.7376 12.5111C12.1995 12.5111 11.7565 12.0171 11.7565 11.4106C11.7565 10.804 12.1912 10.31 12.7376 10.31C13.2885 10.31 13.7276 10.8083 13.7187 11.4106C13.7189 12.0171 13.2885 12.5111 12.7376 12.5111Z" fill="white"/>
</g>
<defs>
<clipPath id="clip0_133_175">
<rect width="21.84" height="21.84" fill="white" transform="translate(0 0.0800018)"/>
</clipPath>
</defs>
</svg>
