<svg width="27" height="26" viewBox="0 0 27 26" fill="none" xmlns="http://www.w3.org/2000/svg">
<path d="M13.12 23.8333C19.103 23.8333 23.9533 18.9831 23.9533 13C23.9533 7.01692 19.103 2.16667 13.12 2.16667C7.13687 2.16667 2.28662 7.01692 2.28662 13C2.28662 18.9831 7.13687 23.8333 13.12 23.8333Z" fill="#C13584"/>
<path d="M13.12 7.67119C14.8555 7.67119 15.0612 7.6778 15.7465 7.70905C16.3803 7.73798 16.7245 7.84388 16.9535 7.93287C17.2569 8.05079 17.4734 8.19163 17.7009 8.41907C17.9284 8.64657 18.0692 8.86308 18.1871 9.16646C18.2761 9.39553 18.382 9.73971 18.4109 10.3734C18.4422 11.0588 18.4488 11.2644 18.4488 12.9999C18.4488 14.7356 18.4422 14.9411 18.4109 15.6265C18.382 16.2603 18.2761 16.6044 18.1871 16.8335C18.0692 17.1369 17.9284 17.3534 17.7009 17.5809C17.4734 17.8083 17.2569 17.9492 16.9535 18.0671C16.7245 18.1561 16.3803 18.262 15.7465 18.2909C15.0613 18.3221 14.8557 18.3288 13.12 18.3288C11.3843 18.3288 11.1788 18.3221 10.4935 18.2909C9.8597 18.262 9.51553 18.1561 9.28646 18.0671C8.98307 17.9492 8.76657 17.8083 8.53912 17.5809C8.31167 17.3534 8.17079 17.1369 8.05287 16.8335C7.96387 16.6044 7.85797 16.2603 7.82905 15.6265C7.79779 14.9411 7.79119 14.7356 7.79119 12.9999C7.79119 11.2644 7.79779 11.0588 7.82905 10.3734C7.85797 9.73971 7.96387 9.39553 8.05287 9.16646C8.17079 8.86308 8.31162 8.64657 8.53912 8.41913C8.76657 8.19163 8.98307 8.05079 9.28646 7.93287C9.51553 7.84388 9.8597 7.73798 10.4935 7.70905C11.1788 7.6778 11.3844 7.67119 13.12 7.67119ZM13.12 6.5C11.3547 6.5 11.1333 6.50747 10.44 6.53911C9.74823 6.57069 9.27568 6.68054 8.86222 6.84125C8.4348 7.00733 8.07231 7.22957 7.71097 7.59097C7.34957 7.95232 7.12732 8.3148 6.96125 8.74223C6.80053 9.15568 6.69068 9.62818 6.6591 10.3201C6.62747 11.0133 6.62 11.2347 6.62 12.9999C6.62 14.7653 6.62747 14.9866 6.6591 15.6799C6.69068 16.3718 6.80053 16.8443 6.96125 17.2577C7.12732 17.6851 7.34957 18.0476 7.71097 18.409C8.07231 18.7704 8.4348 18.9926 8.86222 19.1587C9.27568 19.3194 9.74823 19.4293 10.44 19.4608C11.1333 19.4925 11.3547 19.4999 13.12 19.4999C14.8853 19.4999 15.1067 19.4925 15.7999 19.4608C16.4918 19.4293 16.9643 19.3194 17.3778 19.1587C17.8052 18.9926 18.1677 18.7704 18.529 18.409C18.8904 18.0476 19.1127 17.6851 19.2787 17.2577C19.4395 16.8443 19.5493 16.3718 19.5809 15.6799C19.6125 14.9866 19.62 14.7653 19.62 12.9999C19.62 11.2347 19.6125 11.0133 19.5809 10.3201C19.5493 9.62818 19.4395 9.15568 19.2787 8.74223C19.1127 8.3148 18.8904 7.95232 18.529 7.59097C18.1677 7.22957 17.8052 7.00733 17.3778 6.84125C16.9643 6.68054 16.4918 6.57069 15.7999 6.53911C15.1067 6.50747 14.8853 6.5 13.12 6.5Z" fill="white"/>
<path d="M13.1232 9.66512C11.2798 9.66512 9.7854 11.1595 9.7854 13.0029C9.7854 14.8464 11.2798 16.3407 13.1232 16.3407C14.9667 16.3407 16.4611 14.8464 16.4611 13.0029C16.4611 11.1595 14.9667 9.66512 13.1232 9.66512ZM13.1232 15.1696C11.9266 15.1696 10.9565 14.1995 10.9565 13.0029C10.9565 11.8063 11.9266 10.8363 13.1232 10.8363C14.3199 10.8363 15.2899 11.8063 15.2899 13.0029C15.2899 14.1995 14.3199 15.1696 13.1232 15.1696Z" fill="white"/>
<path d="M17.3725 9.53133C17.3725 9.96206 17.0233 10.3113 16.5925 10.3113C16.1617 10.3113 15.8125 9.96206 15.8125 9.53133C15.8125 9.10054 16.1617 8.75127 16.5925 8.75127C17.0233 8.75127 17.3725 9.10054 17.3725 9.53133Z" fill="white"/>
</svg>
