<svg width="23" height="23" viewBox="0 0 23 23" fill="none" xmlns="http://www.w3.org/2000/svg">
<g clip-path="url(#clip0_133_178)">
<path d="M11.5 23C17.8513 23 23 17.8513 23 11.5C23 5.14873 17.8513 0 11.5 0C5.14873 0 0 5.14873 0 11.5C0 17.8513 5.14873 23 11.5 23Z" fill="#273B7A"/>
<path d="M13.8559 22.758C18.3136 21.8299 21.8245 18.3213 22.7561 13.8649L16.8257 7.92143L10.1608 12.4582L10.952 13.2494L6.16187 15.0656L13.8559 22.758Z" fill="#121149"/>
<path d="M16.1062 7.61516H6.89371C6.34216 7.61516 5.89124 8.06658 5.89124 8.61777V14.3824C5.89124 14.9332 6.34212 15.3848 6.89371 15.3848H16.1062C16.6578 15.3848 17.1088 14.9333 17.1088 14.3824V8.61781C17.1088 8.06667 16.6578 7.61516 16.1062 7.61516Z" fill="url(#paint0_linear_133_178)"/>
<path d="M11.4583 13.0182L7.28223 15.2796L7.28906 15.3848L11.507 13.1113L11.4583 13.0182Z" fill="#B5B4B0"/>
<path d="M16.1912 8.57365L13.5154 10.6342L11.507 13.1113L15.5906 15.3849H16.1061C16.4763 15.3849 16.8006 15.1813 16.9744 14.8805L16.6286 12.5836L16.1912 8.57365Z" fill="#B5B4B0"/>
<path d="M11.5071 13.1113L17.1088 8.77419V8.61782C17.1088 8.06658 16.6578 7.6152 16.1062 7.6152H15.8832L11.6407 11.2367L7.22685 7.6152H6.89371C6.34216 7.6152 5.89124 8.06662 5.89124 8.61782V14.3825C5.89124 14.9333 6.34212 15.3848 6.89371 15.3848H7.28907V9.76364L11.5071 13.1113Z" fill="#DD4B40"/>
<path d="M17.1088 14.3824V8.77414L15.5907 9.94947V15.3848H16.1062C16.6578 15.3848 17.1088 14.9333 17.1088 14.3824Z" fill="#A43026"/>
</g>
<defs>
<linearGradient id="paint0_linear_133_178" x1="5.89124" y1="11.5001" x2="14.3865" y2="11.5001" gradientUnits="userSpaceOnUse">
<stop stop-color="#F3F1E8"/>
<stop offset="1" stop-color="#E3E0D0"/>
</linearGradient>
<clipPath id="clip0_133_178">
<rect width="23" height="23" fill="white"/>
</clipPath>
</defs>
</svg>
