<svg width="27" height="26" viewBox="0 0 27 26" fill="none" xmlns="http://www.w3.org/2000/svg">
<path d="M13.4 24.375C19.6823 24.375 24.775 19.2822 24.775 13C24.775 6.71776 19.6823 1.625 13.4 1.625C7.11779 1.625 2.02502 6.71776 2.02502 13C2.02502 19.2822 7.11779 24.375 13.4 24.375Z" fill="url(#paint0_linear_133_172)"/>
<path d="M19.0766 8.29465C19.1779 7.6402 18.5557 7.12363 17.9737 7.37912L6.38394 12.4676C5.96665 12.6509 5.99717 13.283 6.42997 13.4208L8.82004 14.1819C9.27626 14.3272 9.77018 14.2521 10.1685 13.9769L15.5572 10.254C15.7197 10.1417 15.8968 10.3728 15.758 10.5159L11.8791 14.515C11.5028 14.903 11.5775 15.5603 12.0301 15.8442L16.373 18.5675C16.8601 18.8729 17.4867 18.5661 17.5777 17.9775L19.0766 8.29465Z" fill="white"/>
<defs>
<linearGradient id="paint0_linear_133_172" x1="13.4" y1="1.625" x2="13.4" y2="24.375" gradientUnits="userSpaceOnUse">
<stop stop-color="#37BBFE"/>
<stop offset="1" stop-color="#007DBB"/>
</linearGradient>
</defs>
</svg>
