<svg width="88" height="109" viewBox="0 0 88 109" fill="none" xmlns="http://www.w3.org/2000/svg">
<path d="M70.2703 27.0889C68.4808 20.5223 64.5116 14.9244 59.1419 11.3939L58.2297 10.7954L57.2568 10.2634L58.3513 8.20173L61.5743 1.55131C61.6354 1.36182 61.6388 1.15579 61.584 0.964012C61.5292 0.77223 61.4191 0.604981 61.2703 0.487246H60.8446C60.6893 0.494847 60.5376 0.540651 60.4007 0.62125C60.2638 0.70185 60.1453 0.815171 60.0541 0.952777L56.7703 7.13766L55.7365 9.19929L54.7635 8.73376L53.7297 8.33474C47.4276 5.9428 40.5724 5.9428 34.2703 8.33474L33.2973 8.73376L32.2635 9.19929L31.2297 7.13766L27.9459 0.487246C27.89 0.378078 27.815 0.282021 27.7252 0.204557C27.6353 0.127094 27.5324 0.0697419 27.4223 0.0357768C27.3122 0.00181161 27.197 -0.00810172 27.0834 0.00660204C26.9698 0.0213058 26.86 0.0603386 26.7601 0.121473C26.6603 0.182607 26.5725 0.264646 26.5016 0.362903C26.4308 0.461161 26.3784 0.573714 26.3473 0.694136C26.3163 0.814558 26.3072 0.940491 26.3206 1.06474C26.3341 1.189 26.3698 1.30914 26.4257 1.4183L29.6487 8.06872L30.7432 10.1304L29.7703 10.6624L28.8581 11.2609C23.4628 14.8059 19.5052 20.4658 17.7905 27.0889C17.3159 28.8171 17.0502 30.6057 17 32.4093H71C70.9403 30.6115 70.6955 28.8267 70.2703 27.0889ZM31.8378 23.5642C31.3567 23.5642 30.8865 23.4082 30.4865 23.1159C30.0864 22.8236 29.7747 22.4081 29.5906 21.922C29.4065 21.4359 29.3583 20.9011 29.4521 20.3851C29.546 19.869 29.7777 19.395 30.1178 19.023C30.458 18.651 30.8914 18.3976 31.3633 18.295C31.8351 18.1923 32.3242 18.245 32.7687 18.4464C33.2132 18.6477 33.5931 18.9887 33.8603 19.4261C34.1276 19.8636 34.2703 20.3779 34.2703 20.904C34.2703 21.6096 34.014 22.2862 33.5578 22.7851C33.1017 23.2839 32.483 23.5642 31.8378 23.5642ZM56.1622 23.5642C55.6811 23.5642 55.2108 23.4082 54.8108 23.1159C54.4108 22.8236 54.099 22.4081 53.9149 21.922C53.7308 21.4359 53.6826 20.9011 53.7765 20.3851C53.8703 19.869 54.102 19.395 54.4422 19.023C54.7824 18.651 55.2158 18.3976 55.6876 18.295C56.1595 18.1923 56.6485 18.245 57.093 18.4464C57.5375 18.6477 57.9174 18.9887 58.1847 19.4261C58.4519 19.8636 58.5946 20.3779 58.5946 20.904C58.5946 21.6096 58.3383 22.2862 57.8821 22.7851C57.426 23.2839 56.8073 23.5642 56.1622 23.5642Z" fill="white"/>
<path d="M82.0914 38.027C80.5244 38.027 79.0215 38.6819 77.9134 39.8475C76.8054 41.0132 76.1829 42.5942 76.1829 44.2427V72.4119C76.1829 74.0604 76.8054 75.6414 77.9134 76.8071C79.0215 77.9728 80.5244 78.6277 82.0914 78.6277C83.6585 78.6277 85.1613 77.9728 86.2694 76.8071C87.3775 75.6414 88 74.0604 88 72.4119V44.2427C88 43.4265 87.8472 42.6182 87.5502 41.8641C87.2533 41.1099 86.8181 40.4247 86.2694 39.8475C85.7208 39.2703 85.0694 38.8125 84.3525 38.5001C83.6357 38.1878 82.8673 38.027 82.0914 38.027ZM5.90857 38.027C4.34152 38.027 2.83865 38.6819 1.73058 39.8475C0.622508 41.0132 0 42.5942 0 44.2427V72.4119C0 74.0604 0.622508 75.6414 1.73058 76.8071C2.83865 77.9728 4.34152 78.6277 5.90857 78.6277C7.47562 78.6277 8.97849 77.9728 10.0866 76.8071C11.1946 75.6414 11.8171 74.0604 11.8171 72.4119V44.2427C11.8171 42.5942 11.1946 41.0132 10.0866 39.8475C8.97849 38.6819 7.47562 38.027 5.90857 38.027ZM16.0914 38.027V80.3469C16.0914 82.2234 16.8 84.0231 18.0613 85.35C19.3227 86.6768 21.0334 87.4223 22.8171 87.4223H27.0914V102.433C27.0914 104.081 27.7139 105.662 28.822 106.828C29.9301 107.994 31.4329 108.648 33 108.648C34.567 108.648 36.0699 107.994 37.178 106.828C38.2861 105.662 38.9086 104.081 38.9086 102.433V87.4223H49.0914V102.433C49.0914 104.081 49.7139 105.662 50.822 106.828C51.9301 107.994 53.4329 108.648 55 108.648C56.567 108.648 58.0699 107.994 59.178 106.828C60.2861 105.662 60.9086 104.081 60.9086 102.433V87.4223H65.1829C66.9666 87.4223 68.6773 86.6768 69.9387 85.35C71.2 84.0231 71.9086 82.2234 71.9086 80.3469V38.027H16.0914Z" fill="white"/>
</svg>
