<svg width="84" height="109" viewBox="0 0 84 109" fill="none" xmlns="http://www.w3.org/2000/svg">
<path d="M70.125 57.1214C70.0499 52.961 71.0516 48.8605 73.0171 45.2818C74.9826 41.7031 77.8339 38.7883 81.25 36.8656C79.0988 33.6343 76.2895 30.9799 73.0387 29.1069C69.7879 27.2339 66.1823 26.1923 62.5 26.0625C54.5625 25.3873 45.9375 31.0589 42.75 31.0589C39.5625 31.0589 31.6875 26.3326 25.6875 26.3326C13.1875 26.3326 0 37.0681 0 58.4718C0.0602765 65.1434 1.13718 71.7588 3.1875 78.0524C5.9375 86.6949 16.25 108.369 27 108.031C32.625 108.031 36.625 103.71 43.9375 103.71C51.25 103.71 54.6875 108.031 61 108.031C71.8125 108.031 81.1875 88.1128 83.875 79.2678C79.8057 77.4699 76.3244 74.4031 73.8754 70.4586C71.4264 66.5142 70.1208 61.871 70.125 57.1214ZM57.625 17.4875C59.5669 15.122 61.0311 12.3452 61.9243 9.33421C62.8174 6.32327 63.1199 3.14428 62.8125 0C56.9769 0.691345 51.5869 3.69905 47.6875 8.43992C45.6712 10.7349 44.1145 13.4543 43.1144 16.4282C42.1144 19.4022 41.6924 22.5669 41.875 25.7249C44.9015 25.8168 47.9037 25.1155 50.6247 23.6809C53.3457 22.2464 55.7047 20.1214 57.5 17.4875H57.625Z" fill="white"/>
</svg>
