<svg width="100" height="100" viewBox="0 0 100 100" fill="none" xmlns="http://www.w3.org/2000/svg">
<path d="M89.6666 76.9167H10.3333C7.70782 76.9019 5.19411 75.8523 3.33759 73.9958C1.48107 72.1393 0.431502 69.6256 0.416626 67.0001V10.3334C0.431502 7.70794 1.48107 5.19423 3.33759 3.33771C5.19411 1.48119 7.70782 0.431624 10.3333 0.416748H89.6666C92.2921 0.431624 94.8058 1.48119 96.6623 3.33771C98.5189 5.19423 99.5684 7.70794 99.5833 10.3334V67.0001C99.5684 69.6256 98.5189 72.1393 96.6623 73.9958C94.8058 75.8523 92.2921 76.9019 89.6666 76.9167ZM10.3333 8.91675C9.95757 8.91675 9.59723 9.066 9.33156 9.33168C9.06588 9.59735 8.91663 9.95769 8.91663 10.3334V67.0001C8.91663 67.3758 9.06588 67.7361 9.33156 68.0018C9.59723 68.2675 9.95757 68.4167 10.3333 68.4167H89.6666C90.0423 68.4167 90.4027 68.2675 90.6684 68.0018C90.934 67.7361 91.0833 67.3758 91.0833 67.0001V10.3334C91.0833 9.95769 90.934 9.59735 90.6684 9.33168C90.4027 9.066 90.0423 8.91675 89.6666 8.91675H10.3333Z" fill="white"/>
<path d="M67 99.5833H50C48.8774 99.5686 47.8049 99.1161 47.011 98.3223C46.2172 97.5284 45.7647 96.4559 45.75 95.3333V72.6666C45.75 71.5395 46.1978 70.4585 46.9948 69.6614C47.7918 68.8644 48.8728 68.4166 50 68.4166C51.1272 68.4166 52.2082 68.8644 53.0052 69.6614C53.8022 70.4585 54.25 71.5395 54.25 72.6666V91.0833H67C68.1272 91.0833 69.2082 91.5311 70.0052 92.3281C70.8022 93.1251 71.25 94.2061 71.25 95.3333C71.25 96.4605 70.8022 97.5415 70.0052 98.3385C69.2082 99.1355 68.1272 99.5833 67 99.5833Z" fill="white"/>
<path d="M50 99.5834H33C31.8728 99.5834 30.7918 99.1356 29.9948 98.3386C29.1978 97.5416 28.75 96.4605 28.75 95.3334C28.75 94.2062 29.1978 93.1252 29.9948 92.3282C30.7918 91.5311 31.8728 91.0834 33 91.0834H50C51.1272 91.0834 52.2082 91.5311 53.0052 92.3282C53.8022 93.1252 54.25 94.2062 54.25 95.3334C54.25 96.4605 53.8022 97.5416 53.0052 98.3386C52.2082 99.1356 51.1272 99.5834 50 99.5834Z" fill="white"/>
</svg>
