<svg width="83" height="83" viewBox="0 0 83 83" fill="none" xmlns="http://www.w3.org/2000/svg">
<path d="M41.5 0C18.5658 0 0 18.5658 0 41.5C0 64.4342 18.5658 83 41.5 83C64.4342 83 83 64.4342 83 41.5C83 18.5658 64.4342 0 41.5 0ZM41.5 78.6316C20.9684 78.6316 4.36842 62.0316 4.36842 41.5C4.36842 20.9684 20.9684 4.36842 41.5 4.36842C62.0316 4.36842 78.6316 20.9684 78.6316 41.5C78.6316 62.0316 62.0316 78.6316 41.5 78.6316ZM29.4868 45.8684C25.2276 45.8684 21.8421 49.2539 21.8421 53.5132C21.8421 57.7724 25.2276 61.1579 29.4868 61.1579C33.7461 61.1579 37.1316 57.7724 37.1316 53.5132C37.1316 49.2539 33.7461 45.8684 29.4868 45.8684ZM29.4868 56.7895C27.6303 56.7895 26.2105 55.3697 26.2105 53.5132C26.2105 51.6566 27.6303 50.2368 29.4868 50.2368C31.3434 50.2368 32.7632 51.6566 32.7632 53.5132C32.7632 55.3697 31.3434 56.7895 29.4868 56.7895ZM29.5961 21.9513C25.3368 21.9513 21.9513 25.3368 21.9513 29.5961C21.9513 33.8553 25.3368 37.2408 29.5961 37.2408C33.8553 37.2408 37.2408 33.8553 37.2408 29.5961C37.2408 25.3368 33.7461 21.9513 29.5961 21.9513ZM29.5961 32.8724C27.7395 32.8724 26.3197 31.3434 26.3197 29.5961C26.3197 27.7395 27.8487 26.3197 29.5961 26.3197C31.3434 26.3197 32.8724 27.8487 32.8724 29.5961C32.8724 31.3434 31.3434 32.8724 29.5961 32.8724ZM53.4039 45.7592C49.1447 45.7592 45.7592 49.1447 45.7592 53.4039C45.7592 57.6632 49.1447 61.0487 53.4039 61.0487C57.6632 61.0487 61.0487 57.6632 61.0487 53.4039C61.0487 49.1447 57.6632 45.7592 53.4039 45.7592ZM53.4039 56.6803C51.6566 56.6803 50.1276 55.2605 50.1276 53.4039C50.1276 51.6566 51.6566 50.1276 53.4039 50.1276C55.2605 50.1276 56.6803 51.6566 56.6803 53.4039C56.6803 55.2605 55.2605 56.6803 53.4039 56.6803ZM53.5132 21.8421C49.2539 21.8421 45.8684 25.2276 45.8684 29.4868C45.8684 33.7461 49.2539 37.1316 53.5132 37.1316C57.7724 37.1316 61.1579 33.7461 61.1579 29.4868C61.1579 25.2276 57.7724 21.8421 53.5132 21.8421ZM53.5132 32.7632C51.6566 32.7632 50.2368 31.3434 50.2368 29.4868C50.2368 27.6303 51.6566 26.2105 53.5132 26.2105C55.2605 26.2105 56.7895 27.6303 56.7895 29.4868C56.7895 31.3434 55.2605 32.7632 53.5132 32.7632Z" fill="white"/>
</svg>
